<?xml version="1.0" standalone="no"?>
<!DOCTYPE svg PUBLIC "-//W3C//DTD SVG 1.1//EN" "http://www.w3.org/Graphics/SVG/1.1/DTD/svg11.dtd" >
<svg xmlns="http://www.w3.org/2000/svg">
<metadata></metadata>
<defs>
<font id="source_code_pro_for_powerliMd" horiz-adv-x="1226" >
<font-face units-per-em="2048" ascent="1536" descent="-512" />
<missing-glyph horiz-adv-x="500" />
<glyph horiz-adv-x="0" />
<glyph horiz-adv-x="682" />
<glyph unicode=" " />
<glyph unicode="!" d="M451 147q0 75 47 122.5t116 47.5t116.5 -47.5t47.5 -122.5q0 -76 -47.5 -124t-116.5 -48t-116 48t-47 124zM514 1372h201l-6 -213l-27 -672h-135l-27 672z" />
<glyph unicode="&#x22;" d="M242 1405h256l-4 -242l-58 -467h-133l-57 467zM731 1405h256l-4 -242l-57 -467h-133l-58 467z" />
<glyph unicode="#" d="M170 410v135h176l35 284h-170v136h186l47 366h125l-45 -366h254l49 366h125l-47 -366h166v-136h-180l-37 -284h176v-135h-190l-49 -410h-127l49 410h-256l-49 -410h-127l49 410h-160zM473 545h254l37 284h-256z" />
<glyph unicode="$" d="M164 233l92 140q196 -137 379 -137q105 0 163 42.5t58 114.5q0 47 -35 84t-91 63.5t-123.5 52.5t-135.5 56.5t-124 68t-91 95.5t-35 131q0 129 91 214t243 104v268h141v-266q183 -17 326 -160l-104 -119q-80 61 -143 88t-154 27q-94 0 -148.5 -41t-54.5 -111 q0 -41 35 -74t91.5 -57.5t124 -48.5t135.5 -55t124.5 -69.5t91.5 -99t35 -136.5q0 -132 -97.5 -222t-261.5 -110v-301h-141v297q-108 10 -213.5 54t-177.5 107z" />
<glyph unicode="%" d="M53 170l377 379l76 -72l-340 -414zM53 995q0 155 80 244.5t209 89.5t210 -89.5t81 -244.5q0 -157 -81.5 -250.5t-209.5 -93.5t-208.5 93.5t-80.5 250.5zM199 995q0 -111 40.5 -169t102.5 -58q63 0 103 57.5t40 169.5t-39 164.5t-104 52.5q-64 0 -103.5 -52.5 t-39.5 -164.5zM596 317q0 156 81 246t210 90t209 -89.5t80 -246.5t-80.5 -249.5t-208.5 -92.5t-209.5 92.5t-81.5 249.5zM725 864l340 414l113 -107l-377 -378zM743 317q0 -110 40 -167.5t104 -57.5q62 0 102.5 57.5t40.5 167.5q0 112 -40 166t-103 54q-65 0 -104.5 -54 t-39.5 -166z" />
<glyph unicode="&#x26;" d="M76 350q0 63 19 119t55 103t75 82.5t92 74.5q-88 178 -88 311q0 138 84 232t219 94q130 0 203.5 -75t73.5 -199q0 -42 -10 -80.5t-33.5 -74.5t-44.5 -63.5t-60 -62.5t-63.5 -54.5t-69.5 -54.5q116 -178 308 -342q99 148 153 373h187q-68 -264 -209 -475q118 -87 219 -117 l-51 -166q-138 41 -283 148q-161 -148 -367 -148q-184 0 -296.5 106t-112.5 269zM270 362q0 -101 68 -164t170 -63q106 0 213 92q-186 160 -324 369q-127 -117 -127 -234zM401 1042q0 -93 56 -215q94 67 143 127t49 136q0 61 -27.5 98t-86.5 37q-61 0 -97.5 -51t-36.5 -132z " />
<glyph unicode="'" d="M485 1405h258l-6 -242l-57 -467h-131l-57 467z" />
<glyph unicode="(" d="M412 569q0 288 118 523t334 407l113 -96q-200 -175 -294.5 -378t-94.5 -456t94.5 -455.5t294.5 -377.5l-113 -96q-217 172 -334.5 406.5t-117.5 522.5z" />
<glyph unicode=")" d="M252 -264q200 175 294.5 377.5t94.5 455.5t-94.5 456t-294.5 378l113 96q216 -172 334 -407t118 -523t-117.5 -522.5t-334.5 -406.5z" />
<glyph unicode="*" d="M162 762l35 106l342 -106l18 383h115l18 -383l342 106l35 -106l-328 -144l217 -333l-98 -68l-244 318l-243 -318l-99 68l217 333z" />
<glyph unicode="+" d="M166 602v148h371v395h155v-395h371v-148h-371v-395h-155v395h-371z" />
<glyph unicode="," d="M395 -313q129 54 193 133.5t67 191.5q-10 -2 -32 -2q-76 0 -126.5 44t-50.5 124q0 79 52 124.5t129 45.5q97 0 148.5 -75.5t51.5 -209.5q0 -183 -97 -310t-279 -191z" />
<glyph unicode="-" d="M166 602v148h897v-148h-897z" />
<glyph unicode="." d="M430 166q0 83 52.5 136.5t131.5 53.5t132 -53.5t53 -136.5q0 -84 -53 -137.5t-132 -53.5t-131.5 53.5t-52.5 137.5z" />
<glyph unicode="/" d="M190 -328l672 1782h176l-671 -1782h-177z" />
<glyph unicode="0" d="M137 657q0 324 127 498t350 174t350.5 -174t127.5 -498t-128 -503t-350 -179t-349.5 179t-127.5 503zM324 657q0 -264 78.5 -392t211.5 -128t212 128t79 392q0 263 -78.5 387.5t-212.5 124.5t-212 -124.5t-78 -387.5zM479 668q0 64 39 102.5t96 38.5t96.5 -38.5 t39.5 -102.5t-39.5 -103t-96.5 -39t-96 39t-39 103z" />
<glyph unicode="1" d="M193 0v166h362v909h-276v127q197 32 327 103h152v-1139h327v-166h-892z" />
<glyph unicode="2" d="M131 1128q98 100 202 150.5t238 50.5q198 0 316.5 -107t118.5 -284q0 -70 -29.5 -146t-75 -144.5t-125 -155.5t-153.5 -158.5t-187 -173.5q156 12 240 12h399v-172h-934v119q148 129 236 208.5t181.5 173.5t142 160t79.5 135.5t31 131.5q0 110 -68 174.5t-198 64.5 q-152 0 -299 -151z" />
<glyph unicode="3" d="M109 160l100 131q161 -150 360 -150q129 0 212 60t83 159q0 240 -454 240v152q212 0 310.5 61t98.5 164q0 87 -68.5 138.5t-181.5 51.5q-161 0 -307 -129l-106 127q193 164 422 164q198 0 322 -90t124 -248q0 -109 -72 -185.5t-200 -119.5v-8q138 -31 227.5 -116.5 t89.5 -211.5q0 -114 -66.5 -201t-176 -130.5t-242.5 -43.5q-297 0 -475 185z" />
<glyph unicode="4" d="M78 348v137l624 822h228v-799h194v-160h-194v-348h-191v348h-661zM291 508h448v356q2 76 11 246h-11q-18 -30 -40.5 -63t-51.5 -74t-43 -62z" />
<glyph unicode="5" d="M109 156l98 131q77 -68 159 -107t193 -39q134 0 222.5 75t88.5 200q0 124 -82 194t-219 70q-72 0 -125.5 -17t-126.5 -59l-102 66l41 635h756v-172h-578l-31 -351q113 47 224 47q94 0 174 -24.5t142 -73t97 -128t35 -181.5q0 -104 -41 -189.5t-109.5 -141t-156.5 -86 t-184 -30.5q-279 0 -475 181z" />
<glyph unicode="6" d="M150 608q0 150 30 272t81 204.5t121.5 138.5t149 81t166.5 25q222 0 379 -143l-110 -125q-51 47 -117.5 74.5t-136.5 27.5q-76 0 -140 -28t-117 -87.5t-84 -163.5t-34 -245q77 77 170.5 120.5t185.5 43.5q185 0 295.5 -103.5t110.5 -300.5q0 -124 -62 -222.5t-163 -150 t-220 -51.5q-107 0 -197.5 39t-160 115.5t-108.5 199t-39 279.5zM344 489q20 -178 100 -267t209 -89q109 0 182.5 72.5t73.5 193.5q0 124 -66 189t-190 65q-168 0 -309 -164z" />
<glyph unicode="7" d="M139 1133v172h955v-125q-103 -116 -175 -223.5t-121 -210.5t-78.5 -222.5t-44.5 -240t-22 -283.5h-209q17 360 110.5 612t311.5 521h-727z" />
<glyph unicode="8" d="M135 334q0 63 22.5 116.5t63 94.5t85.5 71.5t102 57.5v8q-197 127 -197 305q0 154 116 248t298 94q190 0 300.5 -96.5t110.5 -253.5q0 -87 -54.5 -165.5t-141.5 -139.5v-8q59 -29 100.5 -57.5t78.5 -68.5t56 -93t19 -119q0 -154 -127.5 -253.5t-348.5 -99.5 q-220 0 -351.5 100t-131.5 259zM317 354q0 -103 84 -167t222 -64q130 0 204 57t74 154q0 28 -5.5 52t-20 44.5t-28.5 36.5t-41 32t-46.5 27t-57.5 25.5t-61.5 23t-69.5 24.5q-36 12 -55 19q-199 -109 -199 -264zM393 987q0 -51 23.5 -91.5t71 -72t99.5 -53.5t130 -47 q145 115 145 244q0 95 -63.5 155t-177.5 60q-101 0 -164.5 -53t-63.5 -142z" />
<glyph unicode="9" d="M129 905q0 124 61.5 222t162.5 150t220 52q107 0 198 -39t161 -115.5t109.5 -199t39.5 -279.5q0 -150 -30 -272t-81.5 -204.5t-122.5 -138.5t-150 -81t-167 -25q-221 0 -376 144l110 125q49 -47 115.5 -75t136.5 -28q76 0 140 28t117 87.5t84 164t34 245.5 q-77 -77 -170.5 -120.5t-185.5 -43.5q-185 0 -295.5 103t-110.5 300zM319 905q0 -124 66 -189t190 -65q169 0 310 164q-20 178 -100.5 267t-209.5 89q-109 0 -182.5 -72.5t-73.5 -193.5z" />
<glyph unicode=":" d="M430 166q0 83 52.5 136.5t131.5 53.5t132 -53.5t53 -136.5q0 -84 -53 -137.5t-132 -53.5t-131.5 53.5t-52.5 137.5zM430 881q0 83 52.5 136.5t131.5 53.5t132 -53.5t53 -136.5t-53 -137t-132 -54t-131.5 54t-52.5 137z" />
<glyph unicode=";" d="M395 -313q129 54 193 133.5t67 191.5q-10 -2 -32 -2q-76 0 -126.5 44t-50.5 124q0 79 52 124.5t129 45.5q97 0 148.5 -75.5t51.5 -209.5q0 -183 -97 -310t-279 -191zM430 881q0 83 52.5 136.5t131.5 53.5t132 -53.5t53 -136.5t-53 -137t-132 -54t-131.5 54t-52.5 137z " />
<glyph unicode="&#x3c;" d="M244 606v148l772 516v-191l-598 -395v-8l598 -395v-191z" />
<glyph unicode="=" d="M166 377v149h897v-149h-897zM166 825v150h897v-150h-897z" />
<glyph unicode="&#x3e;" d="M213 90v191l598 395v8l-598 395v191l772 -516v-148z" />
<glyph unicode="?" d="M217 1225q162 172 383 172q174 0 281.5 -87t107.5 -237q0 -54 -20 -103t-51 -86t-68 -72.5t-73 -70.5t-64.5 -71.5t-43 -83.5t-7.5 -99h-179q-10 59 2 111.5t39 93t61.5 77t71 70t67 65.5t50 70t19.5 77q0 80 -55 130t-152 50q-132 0 -252 -113zM422 147q0 75 47.5 122.5 t116.5 47.5t116.5 -47.5t47.5 -122.5q0 -76 -47.5 -124t-116.5 -48t-116.5 48t-47.5 124z" />
<glyph unicode="@" d="M92 514q0 194 46.5 347t129 249.5t191.5 146.5t237 50q106 0 188.5 -37.5t133 -105t76.5 -156t26 -193.5v-610h-116l-17 114h-8q-45 -60 -116.5 -99.5t-147.5 -39.5q-111 0 -187.5 76.5t-76.5 198.5q0 153 133.5 234.5t400.5 115.5v29q0 148 -75 245t-222 97 q-88 0 -167.5 -42t-143 -122t-100.5 -210.5t-37 -293.5q0 -159 36.5 -288.5t99.5 -213t146.5 -128t179.5 -44.5q157 0 285 88l66 -106q-171 -113 -357 -113q-123 0 -231.5 52.5t-192 151.5t-132 255.5t-48.5 351.5zM608 459q0 -66 40.5 -103t109.5 -37q104 0 209 117v240 q-193 -28 -276 -78.5t-83 -138.5z" />
<glyph unicode="A" d="M53 0l443 1341h237l443 -1341h-218l-114 385h-467l-115 -385h-209zM426 547h371l-56 184q-62 208 -127 447h-8q-49 -189 -125 -447z" />
<glyph unicode="B" d="M201 0v1341h381q469 0 469 -329q0 -102 -60 -181.5t-174 -109.5v-8q305 -52 305 -320q0 -193 -138 -293t-370 -100h-413zM406 162h184q332 0 332 244q0 223 -332 223h-184v-467zM406 778h151q152 0 222.5 54t70.5 159q0 99 -71.5 145t-215.5 46h-157v-404z" />
<glyph unicode="C" d="M129 668q0 321 170.5 509.5t439.5 188.5q114 0 210 -47t163 -119l-115 -129q-110 117 -258 117q-181 0 -290 -139t-109 -375q0 -240 109.5 -380t293.5 -140q157 0 285 141l115 -125q-170 -195 -412 -195q-128 0 -237.5 47t-191 134t-127.5 219t-46 293z" />
<glyph unicode="D" d="M164 0v1341h338q301 0 463.5 -170t162.5 -495q0 -324 -162 -500t-456 -176h-346zM369 166h118q211 0 321 130t110 380q0 249 -109.5 374.5t-321.5 125.5h-118v-1010z" />
<glyph unicode="E" d="M225 0v1341h842v-172h-637v-383h539v-172h-539v-442h657v-172h-862z" />
<glyph unicode="F" d="M262 0v1341h836v-172h-633v-415h536v-174h-536v-580h-203z" />
<glyph unicode="G" d="M104 668q0 161 45.5 293.5t125.5 220.5t190 136t240 48q214 0 376 -166l-114 -129q-108 117 -262 117q-175 0 -282.5 -139t-107.5 -375q0 -244 102.5 -382t289.5 -138q62 0 116 18.5t88 50.5v320h-247v168h436v-578q-71 -69 -177.5 -113.5t-228.5 -44.5q-128 0 -236 47 t-186.5 134t-123 218.5t-44.5 293.5z" />
<glyph unicode="H" d="M154 0v1341h206v-550h508v550h207v-1341h-207v612h-508v-612h-206z" />
<glyph unicode="I" d="M184 0v172h328v997h-328v172h860v-172h-327v-997h327v-172h-860z" />
<glyph unicode="J" d="M154 199l129 123q56 -83 127.5 -125.5t148.5 -42.5q133 0 195.5 71t62.5 228v718h-551v172h756v-907q0 -100 -24 -180t-76 -145t-143 -100.5t-216 -35.5q-120 0 -229.5 55.5t-179.5 168.5z" />
<glyph unicode="K" d="M184 0v1341h207v-641h6l521 641h229l-416 -518l463 -823h-227l-361 664l-215 -256v-408h-207z" />
<glyph unicode="L" d="M260 0v1341h203v-1169h645v-172h-848z" />
<glyph unicode="M" d="M158 0v1341h217l176 -544l61 -211h9l59 211l174 544h217v-1341h-172v674q0 142 27 463h-6l-93 -308l-163 -467h-103l-164 467l-92 308h-6q27 -321 27 -463v-674h-168z" />
<glyph unicode="N" d="M162 0v1341h207l397 -800l129 -279h6q-1 22 -15 188.5t-14 251.5v639h195v-1341h-207l-397 801l-129 278h-6q1 -25 14.5 -188t13.5 -248v-643h-194z" />
<glyph unicode="O" d="M92 676q0 319 144 504.5t378 185.5t378.5 -186t144.5 -504q0 -320 -145 -510.5t-378 -190.5t-377.5 190t-144.5 511zM303 676q0 -237 85.5 -379.5t225.5 -142.5t226 142.5t86 379.5q0 236 -85.5 374t-226.5 138t-226 -138t-85 -374z" />
<glyph unicode="P" d="M193 0v1341h432q503 0 503 -403q0 -210 -137.5 -318t-365.5 -108h-228v-512h-204zM397 678h207q163 0 242.5 63.5t79.5 196.5q0 130 -78.5 185t-243.5 55h-207v-500z" />
<glyph unicode="Q" d="M94 676q0 320 141.5 506t374.5 186t374.5 -186.5t141.5 -505.5q0 -276 -107.5 -458t-289.5 -228q68 -160 279 -160q60 0 102 20l37 -159q-79 -33 -164 -33q-174 0 -294 89.5t-177 238.5q-192 39 -305 222t-113 468zM303 676q0 -237 83.5 -380.5t223.5 -143.5 q142 0 225 143t83 381t-83 376t-225 138q-141 0 -224 -138.5t-83 -375.5z" />
<glyph unicode="R" d="M188 0v1341h433q481 0 481 -387q0 -150 -75 -246.5t-208 -136.5l330 -571h-231l-306 545h-219v-545h-205zM393 711h203q303 0 303 243q0 120 -75 172t-228 52h-203v-467z" />
<glyph unicode="S" d="M129 174l119 139q79 -74 177 -116.5t200 -42.5q130 0 202 52.5t72 143.5q0 36 -12.5 65t-29 48t-52.5 39.5t-61.5 31.5t-77.5 31l-189 84q-287 111 -287 350q0 158 127.5 262.5t325.5 104.5q122 0 231 -45t189 -123l-107 -131q-140 121 -313 121q-114 0 -180 -47 t-66 -129q0 -41 15.5 -72t55.5 -56.5t65 -37.5t86 -36q2 -1 3.5 -1.5t4 -1.5t4.5 -2l182 -80q141 -55 218 -138t77 -220q0 -167 -132.5 -279.5t-354.5 -112.5q-143 0 -269 52t-223 147z" />
<glyph unicode="T" d="M80 1169v172h1069v-172h-432v-1169h-205v1169h-432z" />
<glyph unicode="U" d="M154 510v831h206v-843q0 -177 68 -260.5t188 -83.5q122 0 191.5 83.5t69.5 260.5v843h198v-831q0 -273 -120.5 -404t-338.5 -131t-340 131t-122 404z" />
<glyph unicode="V" d="M72 1341h217l203 -698q18 -63 57 -209t65 -231h9q29 90 71.5 245t53.5 195l200 698h209l-422 -1341h-239z" />
<glyph unicode="W" d="M18 1343h205l90 -811q3 -64 13 -181t12 -152h6q10 44 39 157.5t43 175.5l129 465h135l129 -465q10 -48 23.5 -103.5t30.5 -123t26 -106.5h8q4 63 13 177t12 156l86 811h192l-188 -1343h-221l-135 526q-35 160 -48 246h-6q-28 -160 -49 -246l-129 -526h-217z" />
<glyph unicode="X" d="M92 0l397 692l-372 649h227l174 -319q38 -70 105 -201h8q75 162 96 201l168 319h217l-373 -659l398 -682h-226l-188 338q-80 147 -115 217h-8q-45 -94 -108 -217l-185 -338h-215z" />
<glyph unicode="Y" d="M68 1341h217l184 -378q19 -41 68 -147t77 -165h9q96 200 149 312l178 378h211l-444 -870v-471h-205v471z" />
<glyph unicode="Z" d="M129 0v123l719 1048h-655v172h905v-124l-719 -1047h729v-172h-979z" />
<glyph unicode="[" d="M449 -311v1761h575v-115h-416v-1532h416v-114h-575z" />
<glyph unicode="\" d="M190 1454h177l671 -1782h-176z" />
<glyph unicode="]" d="M205 -197h416v1532h-416v115h575v-1761h-575v114z" />
<glyph unicode="^" d="M215 575l313 797h172l314 -797h-172l-125 336l-99 275h-8l-98 -275l-125 -336h-172z" />
<glyph unicode="_" d="M123 -133h983v-166h-983v166z" />
<glyph unicode="`" d="M356 1487h215l185 -313h-152z" />
<glyph unicode="a" d="M156 264q0 169 164.5 256.5t541.5 116.5q-5 101 -64.5 162t-185.5 61q-147 0 -340 -112l-75 137q230 141 450 141q204 0 311 -111.5t107 -312.5v-602h-166l-16 129h-6q-199 -154 -383 -154q-147 0 -242.5 79.5t-95.5 209.5zM352 279q0 -71 55.5 -106.5t143.5 -35.5 q149 0 311 133v238q-192 -15 -306.5 -47t-159 -75.5t-44.5 -106.5z" />
<glyph unicode="b" d="M180 0v1452h203v-385l-6 -184q69 66 154.5 104.5t168.5 38.5q196 0 305 -137.5t109 -372.5q0 -124 -37 -228t-99.5 -171.5t-143 -104.5t-168.5 -37q-73 0 -153.5 36t-147.5 100h-7l-18 -111h-160zM383 248q59 -53 124 -79t120 -26q122 0 200 98.5t78 272.5 q0 162 -63.5 252t-194.5 90q-135 0 -264 -135v-473z" />
<glyph unicode="c" d="M156 500q0 122 45.5 222.5t122.5 166t179 101.5t216 36q221 0 368 -143l-98 -129q-126 104 -260 104q-162 0 -263 -98.5t-101 -259.5t99 -260t259 -99q155 0 299 119l86 -131q-178 -154 -401 -154q-158 0 -281.5 61t-196.5 181.5t-73 282.5z" />
<glyph unicode="d" d="M115 500q0 119 37.5 219.5t100 166.5t143 103t167.5 37q86 0 154 -31t137 -94l-8 178v373h203v-1452h-166l-17 123h-6q-65 -65 -147 -106.5t-166 -41.5q-197 0 -314.5 139.5t-117.5 385.5zM324 502q0 -171 71 -265t199 -94q134 0 252 136v475q-107 102 -238 102 q-120 0 -202 -97.5t-82 -256.5z" />
<glyph unicode="e" d="M133 500q0 119 43.5 220t115 167t163.5 102.5t190 36.5q216 0 338.5 -130t122.5 -343q0 -41 -10 -104h-754q9 -146 108 -230t252 -84q145 0 291 86l72 -129q-184 -117 -389 -117q-152 0 -274 61.5t-195.5 182t-73.5 281.5zM340 588h578q0 133 -70 205.5t-199 72.5 q-116 0 -202.5 -74t-106.5 -204z" />
<glyph unicode="f" d="M201 838v153l280 10v70q0 188 103.5 297t310.5 109q149 0 293 -58l-45 -149q-104 45 -225 45q-236 0 -236 -240v-74h399v-163h-399v-838h-201v838h-280z" />
<glyph unicode="g" d="M137 -180q0 60 42 116.5t120 100.5v8q-102 60 -102 166q0 50 31.5 100t88.5 88v9q-57 41 -92 107.5t-35 150.5q0 162 117.5 261t286.5 99q81 0 151 -25h412v-153h-250q80 -84 80 -189q0 -159 -111.5 -250.5t-281.5 -91.5q-83 0 -162 33q-70 -45 -70 -104q0 -105 199 -105 h213q198 0 292.5 -57t94.5 -184q0 -147 -156 -249t-409 -102q-215 0 -337 70.5t-122 200.5zM309 -156q0 -73 80 -116t227 -43q155 0 253 54.5t98 129.5q0 62 -52 85t-165 23h-177q-92 0 -153 17q-111 -64 -111 -150zM385 666q0 -99 60 -158t149 -59t149 59t60 158 q0 96 -60.5 156.5t-148.5 60.5t-148.5 -60.5t-60.5 -156.5z" />
<glyph unicode="h" d="M180 0v1452h203v-385l-12 -225q86 87 173 135.5t195 48.5q340 0 340 -405v-621h-202v594q0 133 -48.5 194.5t-160.5 61.5q-76 0 -140 -38t-145 -122v-690h-203z" />
<glyph unicode="i" d="M178 838v163h651v-1001h-202v838h-449zM559 1335q0 64 43.5 105t108.5 41t108 -41t43 -105q0 -65 -42.5 -104t-108.5 -39t-109 39t-43 104z" />
<glyph unicode="j" d="M106 -367l64 150q112 -53 221 -53q132 0 184 63t52 193v852h-449v163h651v-1003q0 -97 -21 -172t-69 -135.5t-134 -92.5t-208 -32q-154 0 -291 67zM559 1335q0 64 43.5 105t108.5 41t108 -41t43 -105q0 -65 -42.5 -104t-108.5 -39t-109 39t-43 104z" />
<glyph unicode="k" d="M201 0v1452h202v-946h9l493 495h228l-392 -401l441 -600h-224l-342 475l-213 -209v-266h-202z" />
<glyph unicode="l" d="M156 1290v162h530v-1114q0 -100 50.5 -148.5t137.5 -48.5q74 0 181 43l49 -151q-6 -2 -29.5 -10t-30.5 -10t-27.5 -8.5t-30 -8.5t-28 -6.5t-31.5 -6.5t-30.5 -4t-35 -3t-36.5 -1q-167 0 -254.5 96.5t-87.5 278.5v940h-327z" />
<glyph unicode="m" d="M111 0v1001h155l17 -131h6q40 76 90.5 116t130.5 40q148 0 186 -170q43 82 98.5 126t133.5 44q105 0 162 -81.5t57 -231.5v-713h-193v696q0 154 -94 154q-46 0 -81 -33t-70 -104v-713h-160v696q0 154 -98 154q-45 0 -79 -33t-69 -104v-713h-192z" />
<glyph unicode="n" d="M180 0v1001h166l16 -161h9q85 89 172.5 137.5t195.5 48.5q340 0 340 -405v-621h-202v594q0 133 -48.5 194.5t-160.5 61.5q-76 0 -140 -38t-145 -122v-690h-203z" />
<glyph unicode="o" d="M115 500q0 122 41 222.5t110.5 166t159 101.5t188.5 36t189 -36t159.5 -101.5t110.5 -166t41 -222.5q0 -121 -41 -221.5t-110.5 -166t-159.5 -101.5t-189 -36t-188.5 36t-159 101.5t-110.5 166t-41 221.5zM324 500q0 -162 78.5 -260.5t211.5 -98.5t212 98.5t79 260.5 t-79 260t-212 98t-211.5 -98t-78.5 -260z" />
<glyph unicode="p" d="M180 -410v1411h166l16 -122h7q70 67 158 107t175 40q195 0 303.5 -137.5t108.5 -372.5q0 -124 -37 -228t-99.5 -171.5t-143.5 -104.5t-170 -37q-70 0 -146.5 32.5t-140.5 90.5l6 -180v-328h-203zM383 248q59 -53 124 -79t118 -26q124 0 202 98.5t78 272.5 q0 162 -63.5 252t-194.5 90q-135 0 -264 -135v-473z" />
<glyph unicode="q" d="M115 500q0 119 37.5 219.5t100 166.5t143 103t167.5 37q165 0 301 -133h6l19 108h160v-1411h-203v355l10 174q-65 -65 -145.5 -104.5t-163.5 -39.5q-197 0 -314.5 139.5t-117.5 385.5zM324 502q0 -171 71 -265t199 -94q134 0 252 136v475q-107 102 -238 102 q-120 0 -202 -97.5t-82 -256.5z" />
<glyph unicode="r" d="M283 0v1001h168l16 -233h6q77 123 190.5 190.5t245.5 67.5q111 0 197 -41l-45 -174q-56 19 -92 26t-90 7q-242 0 -394 -275v-569h-202z" />
<glyph unicode="s" d="M137 131l96 131q185 -131 400 -131q122 0 185 37.5t63 99.5q0 55 -71.5 95.5t-238.5 82.5q-166 43 -270 114.5t-104 172.5q0 130 113 211.5t317 81.5q111 0 218.5 -37.5t190.5 -93.5l-94 -127q-156 102 -313 102q-228 0 -228 -127q0 -28 20.5 -51.5t62.5 -43t91 -35 t119 -33.5q200 -50 295.5 -118t95.5 -181q0 -131 -122 -218.5t-336 -87.5q-134 0 -261.5 43.5t-228.5 112.5z" />
<glyph unicode="t" d="M131 838v153l283 10l26 277h168v-277h473v-163h-473v-443q0 -133 54.5 -194.5t187.5 -61.5q121 0 229 43l41 -149q-168 -58 -317 -58q-212 0 -304.5 110t-92.5 310v443h-275z" />
<glyph unicode="u" d="M150 381v620h202v-593q0 -134 48.5 -196t160.5 -62q78 0 143 38t138 127v686h202v-1001h-165l-17 166h-8q-80 -92 -167 -141.5t-195 -49.5q-342 0 -342 406z" />
<glyph unicode="v" d="M94 1001h205l211 -544q17 -44 35 -94t38.5 -110t32.5 -93h9q10 27 45.5 133t58.5 164l211 544h195l-402 -1001h-229z" />
<glyph unicode="w" d="M14 1001h203l107 -548q15 -82 45 -285h8q20 122 55 285l107 469h159l111 -469q36 -171 57 -285h8q10 55 25.5 155.5t20.5 129.5l106 548h188l-200 -1001h-242l-102 461q-8 43 -52 291h-8q-2 -12 -18.5 -116t-30.5 -177l-100 -459h-238z" />
<glyph unicode="x" d="M117 0l372 520l-346 481h222l145 -204q24 -38 113 -170h8q49 77 106 172l133 202h215l-348 -501l373 -500h-221l-160 213q-86 125 -127 180h-8q-4 -7 -115 -180l-147 -213h-215z" />
<glyph unicode="y" d="M92 1001h203l225 -522q16 -39 55.5 -139.5t61.5 -153.5h8q48 140 103 293l198 522h193l-428 -1064q-31 -84 -69.5 -146.5t-91 -111.5t-122 -74t-154.5 -25q-72 0 -137 21l41 157q44 -14 86 -14q180 0 258 193l27 69z" />
<glyph unicode="z" d="M145 0v109l643 729h-569v163h856v-108l-645 -729h664v-164h-949z" />
<glyph unicode="{" d="M238 508v123q292 2 292 157q0 63 -9 187t-9 196q0 156 89.5 217.5t289.5 61.5h133v-115h-100q-100 0 -152 -17.5t-71 -53t-19 -103.5q0 -56 6 -176t6 -184q0 -104 -43 -157t-149 -71v-8q106 -19 149 -71t43 -156q0 -69 -6 -185.5t-6 -175.5q0 -68 19 -103.5t71 -53 t152 -17.5h100v-114h-133q-201 0 -290 61t-89 217q0 75 9 195.5t9 187.5q0 156 -292 158z" />
<glyph unicode="|" d="M524 -512v2048h181v-2048h-181z" />
<glyph unicode="}" d="M205 -197h100q100 0 152.5 17.5t72 53.5t19.5 103q0 59 -6 175.5t-6 185.5q0 105 42 157t148 70v8q-105 18 -147.5 70.5t-42.5 157.5q0 64 6 184t6 176q0 67 -19.5 103t-72 53.5t-152.5 17.5h-100v115h133q202 0 290.5 -61t88.5 -218q0 -72 -9.5 -196t-9.5 -187 q0 -155 293 -157v-123q-293 -2 -293 -158q0 -67 9.5 -187.5t9.5 -195.5q0 -157 -88.5 -217.5t-290.5 -60.5h-133v114z" />
<glyph unicode="~" d="M143 567q102 267 293 267q45 0 88.5 -17.5t77 -42t65 -49t65.5 -42t65 -17.5q51 0 90 39t71 135l127 -58q-102 -264 -292 -264q-45 0 -88.5 17.5t-77 42t-65 49t-65.5 42t-65 17.5q-103 0 -162 -174z" />
<glyph unicode="&#xa0;" />
<glyph unicode="&#xa1;" d="M451 854q0 76 47 124t116 48t116.5 -48t47.5 -124t-47.5 -123t-116.5 -47t-116 47t-47 123zM514 -371l6 211l27 672h135l27 -672l6 -211h-201z" />
<glyph unicode="&#xa2;" d="M223 633q0 207 116 336.5t302 158.5v211h121v-204q148 -10 264 -119l-96 -127q-79 70 -168 78v-666q101 8 196 88l86 -127q-124 -111 -282 -127v-207h-121v209q-192 24 -305 153t-113 343zM422 633q0 -126 57.5 -210t161.5 -112v643q-103 -29 -161 -113t-58 -208z" />
<glyph unicode="&#xa3;" d="M154 0v125q121 52 186.5 145t65.5 209q0 42 -13 96h-239v125l196 9q-21 56 -29.5 81t-19 70.5t-10.5 81.5q0 177 120.5 282t319.5 105q224 0 365 -158l-115 -112q-104 104 -238 104q-123 0 -191.5 -61.5t-68.5 -167.5q0 -14 1.5 -29t3 -27t5.5 -29t6.5 -26.5t8.5 -29.5 t8 -27t9.5 -29t9.5 -28h378v-134h-342q11 -57 11 -98q0 -97 -33.5 -164.5t-108.5 -132.5v-8h658v-172h-944z" />
<glyph unicode="&#xa4;" d="M106 266l170 172q-71 99 -71 236q0 139 71 235l-170 174l107 107l180 -182q97 69 221 69q125 0 222 -69l180 182l106 -107l-172 -174q74 -96 74 -235q0 -132 -74 -236l172 -172l-106 -106l-180 182q-98 -70 -222 -70q-123 0 -221 70l-180 -182zM389 674 q0 -113 64.5 -183.5t160.5 -70.5t161 70.5t65 183.5t-65 184.5t-161 71.5t-160.5 -71.5t-64.5 -184.5z" />
<glyph unicode="&#xa5;" d="M96 1305h209l172 -330q22 -45 66.5 -136.5t68.5 -138.5h9q9 17 59 119.5t78 155.5l172 330h203l-369 -641h317v-109h-366v-127h366v-111h-366v-317h-203v317h-365v111h365v127h-365v109h316z" />
<glyph unicode="&#xa6;" d="M524 432h181v-944h-181v944zM524 606v930h181v-930h-181z" />
<glyph unicode="&#xa7;" d="M176 694q0 84 48.5 152t133.5 112q-63 69 -63 168q0 120 85.5 199.5t237.5 79.5q187 0 340 -123l-96 -129q-119 96 -233 96q-75 0 -112.5 -32t-37.5 -84q0 -40 31.5 -73.5t82.5 -58.5t112 -50.5t122 -58t112 -72t82.5 -101t31.5 -137.5q0 -92 -46.5 -156t-136.5 -113 q58 -71 58 -163q0 -128 -95 -209.5t-251 -81.5q-113 0 -211 39.5t-164 111.5l121 109q110 -107 254 -107q75 0 118 36t43 91q0 43 -31.5 78t-81.5 60t-110 50t-120.5 56.5t-110.5 71t-81.5 101t-31.5 138.5zM350 707q0 -40 19 -73.5t48.5 -57t73.5 -47t85 -40.5t93.5 -41 t88.5 -45q62 29 91.5 66.5t29.5 95.5q0 48 -24.5 87t-71 68t-93 50.5t-111.5 50t-106 51.5q-123 -62 -123 -165z" />
<glyph unicode="&#xa8;" d="M287 1321q0 53 35 89t88 36q55 0 90 -36t35 -89q0 -54 -35 -89.5t-90 -35.5q-54 0 -88.5 35.5t-34.5 89.5zM694 1321q0 53 35 89t90 36q53 0 88 -36t35 -89q0 -54 -34.5 -89.5t-88.5 -35.5q-55 0 -90 35.5t-35 89.5z" />
<glyph unicode="&#xa9;" d="M55 664q0 153 43.5 281t118.5 213.5t177.5 133t219.5 47.5t219.5 -47.5t178 -133t119 -213.5t43.5 -281q0 -154 -43.5 -283.5t-119 -216.5t-178 -135.5t-219.5 -48.5t-219.5 48.5t-177.5 135.5t-118.5 216.5t-43.5 283.5zM160 664q0 -264 125 -427t329 -163t329.5 163 t125.5 427q0 263 -125 422t-330 159t-329.5 -159t-124.5 -422zM295 662q0 174 100.5 281.5t241.5 107.5q69 0 120 -25.5t99 -71.5l-82 -92q-66 60 -127 60q-88 0 -141 -72.5t-53 -187.5q0 -128 50 -201.5t136 -73.5q45 0 79 16t75 48l71 -101q-109 -92 -231 -92 q-146 0 -242 109.5t-96 294.5z" />
<glyph unicode="&#xaa;" d="M336 709q0 107 101.5 165.5t322.5 81.5q-7 136 -137 136q-95 0 -203 -68l-60 100q149 88 289 88q129 0 195.5 -73t66.5 -211v-396h-125l-10 74h-4q-116 -90 -225 -90q-90 0 -150.5 54t-60.5 139zM483 721q0 -42 31 -64t78 -22q81 0 168 74v151q-148 -17 -212.5 -51 t-64.5 -88z" />
<glyph unicode="&#xab;" d="M147 416v200l322 324l92 -82l-260 -342l260 -344l-92 -80zM637 416v200l321 324l93 -82l-260 -342l260 -344l-93 -80z" />
<glyph unicode="&#xac;" d="M166 602v148h897v-543h-158v395h-739z" />
<glyph unicode="&#xad;" d="M166 602v148h897v-148h-897z" />
<glyph unicode="&#xae;" d="M223 1055q0 177 113.5 292t277.5 115q163 0 276.5 -115t113.5 -292t-113.5 -291.5t-276.5 -114.5q-164 0 -277.5 114.5t-113.5 291.5zM311 1055q0 -143 86 -233.5t217 -90.5q130 0 215.5 90.5t85.5 233.5t-85.5 234t-215.5 91t-216.5 -91t-86.5 -234zM461 854v412h162 q72 0 116.5 -32.5t44.5 -100.5q0 -37 -20 -68.5t-55 -44.5l92 -166h-101l-69 137h-78v-137h-92zM553 1063h49q84 0 84 63q0 66 -80 66h-53v-129z" />
<glyph unicode="&#xaf;" d="M354 1225v137h520v-137h-520z" />
<glyph unicode="&#xb0;" d="M348 1130q0 120 78 196.5t188 76.5q112 0 190.5 -76.5t78.5 -196.5q0 -117 -78.5 -192.5t-190.5 -75.5q-110 0 -188 75.5t-78 192.5zM465 1130q0 -71 41.5 -116t107.5 -45q67 0 109.5 45t42.5 116q0 74 -42.5 120t-109.5 46q-66 0 -107.5 -46t-41.5 -120z" />
<glyph unicode="&#xb1;" d="M166 0v150h897v-150h-897zM166 616v150h371v379h155v-379h371v-150h-371v-340h-155v340h-371z" />
<glyph unicode="&#xb2;" d="M346 1427q113 127 252 127q113 0 178.5 -57t65.5 -158q0 -38 -16 -75.5t-53 -80t-68.5 -73t-90.5 -82.5h256v-127h-499v84q172 128 246.5 201t74.5 133q0 52 -29.5 81.5t-84.5 29.5q-76 0 -138 -82z" />
<glyph unicode="&#xb3;" d="M348 981l70 94q34 -36 83 -59t99 -23q54 0 85.5 22t31.5 66q0 97 -185 97v86q77 0 116.5 24.5t39.5 69.5q0 80 -104 80q-35 0 -75 -18t-71 -48l-69 92q42 41 107.5 65.5t137.5 24.5q98 0 161 -48t63 -126q0 -58 -26.5 -93.5t-86.5 -57.5q143 -37 143 -158 q0 -88 -72.5 -141t-181.5 -53q-153 0 -266 104z" />
<glyph unicode="&#xb4;" d="M473 1174l184 313h215l-247 -313h-152z" />
<glyph unicode="&#xb5;" d="M150 -389v1390h202v-593q0 -131 50 -194.5t155 -63.5q82 0 150 44t135 164v643h205q-13 -568 -13 -784q0 -76 60 -76q18 0 36 4l27 -151q-51 -19 -110 -19q-83 0 -126.5 53t-58.5 167h-6q-58 -106 -136 -159.5t-169 -53.5q-73 0 -125 20t-86 74q3 -285 14 -465h-204z" />
<glyph unicode="&#xb6;" d="M135 899q0 119 36.5 206.5t103.5 138t152 74t191 23.5h87v-892h-70q-145 0 -255.5 47t-177.5 150t-67 253zM815 -164v1505h201v-1505h-201z" />
<glyph unicode="&#xb7;" d="M430 715q0 83 52.5 136.5t131.5 53.5t132 -53.5t53 -136.5q0 -84 -53 -137.5t-132 -53.5t-131.5 53.5t-52.5 137.5z" />
<glyph unicode="&#xb8;" d="M442 -346q179 21 179 96q0 34 -30 56t-97 40l81 160h127l-49 -104q121 -41 121 -148q0 -60 -45.5 -103t-113 -64t-154.5 -27z" />
<glyph unicode="&#xb9;" d="M420 1364v96q68 10 109.5 25.5t88.5 44.5h121v-629h-153v463h-166z" />
<glyph unicode="&#xba;" d="M287 862q0 160 95.5 255t231.5 95q137 0 232.5 -95t95.5 -255q0 -158 -95.5 -252t-232.5 -94t-232 94t-95 252zM442 862q0 -101 45.5 -162t126.5 -61t126.5 61t45.5 162q0 103 -46 165.5t-126 62.5t-126 -62.5t-46 -165.5z" />
<glyph unicode="&#xbb;" d="M178 172l260 344l-260 342l92 82l322 -324v-200l-322 -324zM668 172l260 344l-260 342l92 82l321 -324v-200l-321 -324z" />
<glyph unicode="&#xbc;" d="M51 170l377 379l78 -72l-340 -414zM150 1139v98q65 8 107 23.5t91 44.5h121v-629h-154v463h-165zM616 143v74l289 412h178v-385h105v-101h-105v-143h-135v143h-332zM723 864l340 414l115 -107l-377 -378zM766 244h182v96l10 176h-8l-86 -129z" />
<glyph unicode="&#xbd;" d="M51 170l377 379l78 -72l-340 -414zM150 1139v98q65 8 107 23.5t91 44.5h121v-629h-154v463h-165zM618 526q108 127 250 127q114 0 179 -57t65 -158q0 -38 -16 -75.5t-52.5 -80t-67.5 -72.5t-89 -83h254v-127h-500v84q174 130 249 202.5t75 131.5q0 51 -31 80.5t-86 29.5 q-75 0 -137 -82zM723 864l340 414l115 -107l-377 -378z" />
<glyph unicode="&#xbe;" d="M78 756l69 94q33 -34 82.5 -58t98.5 -24q53 0 84.5 22.5t31.5 65.5q0 96 -184 96v86q77 0 116.5 25t39.5 70q0 79 -103 79q-77 0 -147 -63l-68 90q42 41 107.5 65.5t138.5 24.5q98 0 160.5 -47t62.5 -127q0 -59 -26.5 -94t-87.5 -57q143 -36 143 -158q0 -89 -72.5 -142 t-181.5 -53q-153 0 -264 105zM94 170l377 379l76 -72l-340 -414zM618 143v74l289 412h178v-385h103v-101h-103v-143h-137v143h-330zM766 244h182v96l10 176h-6l-86 -129zM766 864l340 414l113 -107l-377 -378z" />
<glyph unicode="&#xbf;" d="M242 -74q0 54 20 103t51 86t68 72.5t73 70.5t64.5 71.5t43 83.5t7.5 99h179q10 -58 -2 -110.5t-39 -92.5t-61.5 -76.5t-71 -69.5t-67 -65t-50 -70t-19.5 -77q0 -80 55 -130t152 -50q136 0 252 110l117 -106q-163 -170 -383 -170q-174 0 -281.5 86t-107.5 235zM481 854 q0 76 47.5 124t116.5 48t116.5 -48t47.5 -124t-47.5 -123t-116.5 -47t-116.5 47t-47.5 123z" />
<glyph unicode="&#xc0;" d="M53 0l443 1341h237l443 -1341h-218l-114 385h-467l-115 -385h-209zM330 1677h225l176 -233h-166zM426 547h371l-56 184q-62 208 -127 447h-8q-49 -189 -125 -447z" />
<glyph unicode="&#xc1;" d="M53 0l443 1341h237l443 -1341h-218l-114 385h-467l-115 -385h-209zM426 547h371l-56 184q-62 208 -127 447h-8q-49 -189 -125 -447zM498 1444l176 233h225l-235 -233h-166z" />
<glyph unicode="&#xc2;" d="M53 0l443 1341h237l443 -1341h-218l-114 385h-467l-115 -385h-209zM319 1444l197 233h197l196 -233h-161l-130 135h-8l-129 -135h-162zM426 547h371l-56 184q-62 208 -127 447h-8q-49 -189 -125 -447z" />
<glyph unicode="&#xc3;" d="M53 0l443 1341h237l443 -1341h-218l-114 385h-467l-115 -385h-209zM305 1452q11 107 60.5 171.5t123.5 64.5q46 0 92 -26t84.5 -51.5t67.5 -25.5q30 0 51.5 26.5t30.5 76.5h109q-11 -107 -61 -171.5t-124 -64.5q-46 0 -91.5 25.5t-84 51t-67.5 25.5q-30 0 -51.5 -26 t-30.5 -76h-109zM426 547h371l-56 184q-62 208 -127 447h-8q-49 -189 -125 -447z" />
<glyph unicode="&#xc4;" d="M53 0l443 1341h237l443 -1341h-218l-114 385h-467l-115 -385h-209zM319 1569q0 47 32 78.5t79 31.5q49 0 81 -31.5t32 -78.5q0 -49 -31.5 -81t-81.5 -32q-48 0 -79.5 32t-31.5 81zM426 547h371l-56 184q-62 208 -127 447h-8q-49 -189 -125 -447zM686 1569q0 47 32 78.5 t81 31.5q47 0 78.5 -31.5t31.5 -78.5q0 -49 -31.5 -81t-78.5 -32q-49 0 -81 32t-32 81z" />
<glyph unicode="&#xc5;" d="M53 0l443 1341h237l443 -1341h-218l-114 385h-467l-115 -385h-209zM414 1616q0 84 55 134t145 50q89 0 145 -50t56 -134t-56 -135t-145 -51q-90 0 -145 51t-55 135zM426 547h371l-56 184q-62 208 -127 447h-8q-49 -189 -125 -447zM520 1616q0 -46 26.5 -74.5t67.5 -28.5 q39 0 66 28.5t27 74.5q0 45 -27 72.5t-66 27.5q-41 0 -67.5 -27.5t-26.5 -72.5z" />
<glyph unicode="&#xc6;" d="M-4 0l508 1341h690v-172h-363v-381h285v-172h-285v-444h381v-172h-565v369h-305l-133 -369h-213zM401 530h246v654h-8q-30 -90 -154 -422z" />
<glyph unicode="&#xc7;" d="M129 668q0 321 170.5 509.5t439.5 188.5q114 0 210 -47t163 -119l-115 -129q-110 117 -258 117q-181 0 -290 -139t-109 -375q0 -240 109.5 -380t293.5 -140q157 0 285 141l115 -125q-157 -181 -379 -195l-35 -73q121 -41 121 -148q0 -60 -45 -103t-112.5 -64t-155.5 -27 l-19 94q180 20 180 96q0 34 -31 56t-98 40l70 136q-228 33 -369 214t-141 472z" />
<glyph unicode="&#xc8;" d="M225 0v1341h842v-172h-637v-383h539v-172h-539v-442h657v-172h-862zM387 1677h225l179 -233h-168z" />
<glyph unicode="&#xc9;" d="M225 0v1341h842v-172h-637v-383h539v-172h-539v-442h657v-172h-862zM555 1444l176 233h225l-233 -233h-168z" />
<glyph unicode="&#xca;" d="M225 0v1341h842v-172h-637v-383h539v-172h-539v-442h657v-172h-862zM377 1444l196 233h197l197 -233h-160l-131 135h-8l-129 -135h-162z" />
<glyph unicode="&#xcb;" d="M225 0v1341h842v-172h-637v-383h539v-172h-539v-442h657v-172h-862zM377 1569q0 48 31.5 79t80.5 31q47 0 79 -31.5t32 -78.5q0 -49 -31.5 -81t-79.5 -32q-49 0 -80.5 31.5t-31.5 81.5zM745 1569q0 48 31 79t80 31q47 0 79 -31.5t32 -78.5q0 -49 -31.5 -81t-79.5 -32 q-49 0 -80 31.5t-31 81.5z" />
<glyph unicode="&#xcc;" d="M184 0v172h328v997h-328v172h860v-172h-327v-997h327v-172h-860zM330 1677h225l176 -233h-166z" />
<glyph unicode="&#xcd;" d="M184 0v172h328v997h-328v172h860v-172h-327v-997h327v-172h-860zM498 1444l176 233h225l-235 -233h-166z" />
<glyph unicode="&#xce;" d="M184 0v172h328v997h-328v172h860v-172h-327v-997h327v-172h-860zM319 1444l197 233h197l196 -233h-161l-130 135h-8l-129 -135h-162z" />
<glyph unicode="&#xcf;" d="M184 0v172h328v997h-328v172h860v-172h-327v-997h327v-172h-860zM319 1569q0 47 32 78.5t79 31.5q49 0 81 -31.5t32 -78.5q0 -49 -31.5 -81t-81.5 -32q-48 0 -79.5 32t-31.5 81zM686 1569q0 47 32 78.5t81 31.5q47 0 78.5 -31.5t31.5 -78.5q0 -49 -31.5 -81t-78.5 -32 q-49 0 -81 32t-32 81z" />
<glyph unicode="&#xd0;" d="M25 647v98l151 11v585h338q300 0 463.5 -170.5t163.5 -494.5t-162.5 -500t-454.5 -176h-348v647h-151zM381 166h119q211 0 320.5 130t109.5 380q0 249 -109 374.5t-321 125.5h-119v-420h274v-109h-274v-481z" />
<glyph unicode="&#xd1;" d="M162 0v1341h207l397 -800l129 -279h6q-1 22 -15 188.5t-14 251.5v639h195v-1341h-207l-397 801l-129 278h-6q1 -25 14.5 -188t13.5 -248v-643h-194zM317 1452q11 107 61 171.5t124 64.5q37 0 74 -16t61.5 -35.5t54 -35.5t53.5 -16q30 0 51.5 26.5t30.5 76.5h109 q-11 -107 -60.5 -171.5t-123.5 -64.5q-46 0 -92 25.5t-84.5 51t-67.5 25.5q-30 0 -51.5 -26t-30.5 -76h-109z" />
<glyph unicode="&#xd2;" d="M92 676q0 319 144 504.5t378 185.5t378.5 -186t144.5 -504q0 -320 -145 -510.5t-378 -190.5t-377.5 190t-144.5 511zM303 676q0 -237 85.5 -379.5t225.5 -142.5t226 142.5t86 379.5q0 236 -85.5 374t-226.5 138t-226 -138t-85 -374zM330 1677h225l176 -233h-166z" />
<glyph unicode="&#xd3;" d="M92 676q0 319 144 504.5t378 185.5t378.5 -186t144.5 -504q0 -320 -145 -510.5t-378 -190.5t-377.5 190t-144.5 511zM303 676q0 -237 85.5 -379.5t225.5 -142.5t226 142.5t86 379.5q0 236 -85.5 374t-226.5 138t-226 -138t-85 -374zM498 1444l176 233h225l-235 -233h-166 z" />
<glyph unicode="&#xd4;" d="M92 676q0 319 144 504.5t378 185.5t378.5 -186t144.5 -504q0 -320 -145 -510.5t-378 -190.5t-377.5 190t-144.5 511zM303 676q0 -237 85.5 -379.5t225.5 -142.5t226 142.5t86 379.5q0 236 -85.5 374t-226.5 138t-226 -138t-85 -374zM319 1444l197 233h197l196 -233h-161 l-130 135h-8l-129 -135h-162z" />
<glyph unicode="&#xd5;" d="M92 676q0 319 144 504.5t378 185.5t378.5 -186t144.5 -504q0 -320 -145 -510.5t-378 -190.5t-377.5 190t-144.5 511zM303 676q0 -237 85.5 -379.5t225.5 -142.5t226 142.5t86 379.5q0 236 -85.5 374t-226.5 138t-226 -138t-85 -374zM305 1452q11 107 60.5 171.5 t123.5 64.5q46 0 92 -26t84.5 -51.5t67.5 -25.5q30 0 51.5 26.5t30.5 76.5h109q-11 -107 -61 -171.5t-124 -64.5q-46 0 -91.5 25.5t-84 51t-67.5 25.5q-30 0 -51.5 -26t-30.5 -76h-109z" />
<glyph unicode="&#xd6;" d="M92 676q0 319 144 504.5t378 185.5t378.5 -186t144.5 -504q0 -320 -145 -510.5t-378 -190.5t-377.5 190t-144.5 511zM303 676q0 -237 85.5 -379.5t225.5 -142.5t226 142.5t86 379.5q0 236 -85.5 374t-226.5 138t-226 -138t-85 -374zM319 1569q0 47 32 78.5t79 31.5 q49 0 81 -31.5t32 -78.5q0 -49 -31.5 -81t-81.5 -32q-48 0 -79.5 32t-31.5 81zM686 1569q0 47 32 78.5t81 31.5q47 0 78.5 -31.5t31.5 -78.5q0 -49 -31.5 -81t-78.5 -32q-49 0 -81 32t-32 81z" />
<glyph unicode="&#xd7;" d="M199 358l309 318l-309 315l106 109l309 -320l310 320l106 -109l-309 -315l309 -318l-106 -108l-310 319l-309 -319z" />
<glyph unicode="&#xd8;" d="M84 8l129 191q-121 189 -121 477q0 319 144 504.5t378 185.5q184 0 316 -117l108 160l113 -76l-131 -192q117 -185 117 -465q0 -320 -145 -510.5t-378 -190.5q-175 0 -309 115l-106 -158zM303 676q0 -164 41 -285l473 692q-82 105 -203 105q-141 0 -226 -138t-85 -374z M418 254q77 -100 196 -100q140 0 226 142.5t86 379.5q0 151 -39 270z" />
<glyph unicode="&#xd9;" d="M154 510v831h206v-843q0 -177 68 -260.5t188 -83.5q122 0 191.5 83.5t69.5 260.5v843h198v-831q0 -273 -120.5 -404t-338.5 -131t-340 131t-122 404zM330 1677h225l176 -233h-166z" />
<glyph unicode="&#xda;" d="M154 510v831h206v-843q0 -177 68 -260.5t188 -83.5q122 0 191.5 83.5t69.5 260.5v843h198v-831q0 -273 -120.5 -404t-338.5 -131t-340 131t-122 404zM498 1444l176 233h225l-235 -233h-166z" />
<glyph unicode="&#xdb;" d="M154 510v831h206v-843q0 -177 68 -260.5t188 -83.5q122 0 191.5 83.5t69.5 260.5v843h198v-831q0 -273 -120.5 -404t-338.5 -131t-340 131t-122 404zM319 1444l197 233h197l196 -233h-161l-130 135h-8l-129 -135h-162z" />
<glyph unicode="&#xdc;" d="M154 510v831h206v-843q0 -177 68 -260.5t188 -83.5q122 0 191.5 83.5t69.5 260.5v843h198v-831q0 -273 -120.5 -404t-338.5 -131t-340 131t-122 404zM319 1569q0 47 32 78.5t79 31.5q49 0 81 -31.5t32 -78.5q0 -49 -31.5 -81t-81.5 -32q-48 0 -79.5 32t-31.5 81z M686 1569q0 47 32 78.5t81 31.5q47 0 78.5 -31.5t31.5 -78.5q0 -49 -31.5 -81t-78.5 -32q-49 0 -81 32t-32 81z" />
<glyph unicode="&#xdd;" d="M68 1341h217l184 -378q19 -41 68 -147t77 -165h9q96 200 149 312l178 378h211l-444 -870v-471h-205v471zM498 1444l176 233h225l-235 -233h-166z" />
<glyph unicode="&#xde;" d="M193 0v1341h204v-219h228q501 0 501 -405q0 -210 -136.5 -317t-364.5 -107h-228v-293h-204zM397 457h207q163 0 241.5 63.5t78.5 196.5q0 131 -77.5 185t-242.5 54h-207v-499z" />
<glyph unicode="&#xdf;" d="M166 0v1051q0 193 113 309.5t313 116.5q163 0 255.5 -91t92.5 -223q0 -56 -17.5 -106t-42.5 -85.5t-50 -68.5t-42.5 -69t-17.5 -72q0 -37 21.5 -66.5t56 -51.5t76 -44t82.5 -49.5t75.5 -60.5t56 -85t21.5 -116q0 -135 -92.5 -224.5t-247.5 -89.5q-152 0 -293 88l76 142 q107 -74 211 -74q73 0 114.5 40t41.5 101q0 43 -21.5 78t-56 59.5t-76 47t-82.5 47.5t-75.5 55t-56 75.5t-21.5 102.5q0 50 17.5 95.5t42.5 81t50 70t42.5 77.5t17.5 90q0 71 -43.5 117.5t-116.5 46.5q-105 0 -163 -74.5t-58 -212.5v-1028h-203z" />
<glyph unicode="&#xe0;" d="M156 264q0 169 164.5 256.5t541.5 116.5q-5 101 -64.5 162t-185.5 61q-147 0 -340 -112l-75 137q230 141 450 141q204 0 311 -111.5t107 -312.5v-602h-166l-16 129h-6q-199 -154 -383 -154q-147 0 -242.5 79.5t-95.5 209.5zM352 279q0 -71 55.5 -106.5t143.5 -35.5 q149 0 311 133v238q-192 -15 -306.5 -47t-159 -75.5t-44.5 -106.5zM381 1487h217l184 -313h-153z" />
<glyph unicode="&#xe1;" d="M156 264q0 169 164.5 256.5t541.5 116.5q-5 101 -64.5 162t-185.5 61q-147 0 -340 -112l-75 137q230 141 450 141q204 0 311 -111.5t107 -312.5v-602h-166l-16 129h-6q-199 -154 -383 -154q-147 0 -242.5 79.5t-95.5 209.5zM352 279q0 -71 55.5 -106.5t143.5 -35.5 q149 0 311 133v238q-192 -15 -306.5 -47t-159 -75.5t-44.5 -106.5zM498 1174l184 313h215l-248 -313h-151z" />
<glyph unicode="&#xe2;" d="M156 264q0 169 164.5 256.5t541.5 116.5q-5 101 -64.5 162t-185.5 61q-147 0 -340 -112l-75 137q230 141 450 141q204 0 311 -111.5t107 -312.5v-602h-166l-16 129h-6q-199 -154 -383 -154q-147 0 -242.5 79.5t-95.5 209.5zM352 279q0 -71 55.5 -106.5t143.5 -35.5 q149 0 311 133v238q-192 -15 -306.5 -47t-159 -75.5t-44.5 -106.5zM352 1174l201 313h172l201 -313h-152l-131 200h-8l-129 -200h-154z" />
<glyph unicode="&#xe3;" d="M156 264q0 169 164.5 256.5t541.5 116.5q-5 101 -64.5 162t-185.5 61q-147 0 -340 -112l-75 137q230 141 450 141q204 0 311 -111.5t107 -312.5v-602h-166l-16 129h-6q-199 -154 -383 -154q-147 0 -242.5 79.5t-95.5 209.5zM334 1184q12 113 61.5 177t132.5 64 q34 0 68.5 -17t57.5 -38t49.5 -38t46.5 -17q34 0 53.5 26.5t30.5 83.5h110q-12 -112 -61.5 -176.5t-132.5 -64.5q-34 0 -67.5 17t-56 38t-49.5 38t-49 17q-64 0 -84 -110h-110zM352 279q0 -71 55.5 -106.5t143.5 -35.5q149 0 311 133v238q-192 -15 -306.5 -47t-159 -75.5 t-44.5 -106.5z" />
<glyph unicode="&#xe4;" d="M156 264q0 169 164.5 256.5t541.5 116.5q-5 101 -64.5 162t-185.5 61q-147 0 -340 -112l-75 137q230 141 450 141q204 0 311 -111.5t107 -312.5v-602h-166l-16 129h-6q-199 -154 -383 -154q-147 0 -242.5 79.5t-95.5 209.5zM311 1321q0 53 35 89t90 36q53 0 88 -36 t35 -89q0 -54 -34.5 -89.5t-88.5 -35.5q-55 0 -90 35.5t-35 89.5zM352 279q0 -71 55.5 -106.5t143.5 -35.5q149 0 311 133v238q-192 -15 -306.5 -47t-159 -75.5t-44.5 -106.5zM721 1321q0 53 34 89t89 36q53 0 88 -36t35 -89q0 -54 -34.5 -89.5t-88.5 -35.5q-55 0 -89 35 t-34 90z" />
<glyph unicode="&#xe5;" d="M156 264q0 169 164.5 256.5t541.5 116.5q-5 101 -64.5 162t-185.5 61q-147 0 -340 -112l-75 137q230 141 450 141q204 0 311 -111.5t107 -312.5v-602h-166l-16 129h-6q-199 -154 -383 -154q-147 0 -242.5 79.5t-95.5 209.5zM352 279q0 -71 55.5 -106.5t143.5 -35.5 q149 0 311 133v238q-192 -15 -306.5 -47t-159 -75.5t-44.5 -106.5zM438 1309q0 86 56.5 139t144.5 53q90 0 146.5 -53t56.5 -139q0 -87 -56.5 -141t-146.5 -54q-88 0 -144.5 54t-56.5 141zM545 1309q0 -50 27.5 -80.5t66.5 -30.5q41 0 67.5 30.5t26.5 80.5q0 49 -26.5 78.5 t-67.5 29.5q-39 0 -66.5 -30t-27.5 -78z" />
<glyph unicode="&#xe6;" d="M35 270q0 149 122 238t373 129q-7 225 -161 225q-49 0 -113.5 -23t-116.5 -57l-73 136q171 108 321 108q91 0 153 -50.5t93 -137.5q104 188 282 188q98 0 168.5 -65t104 -168.5t33.5 -231.5q0 -51 -11 -112h-512q9 -146 69 -229t165 -83q94 0 186 62l72 -133 q-125 -91 -264 -91q-202 0 -308 179q-170 -179 -313 -179q-125 0 -197.5 80t-72.5 215zM219 281q0 -70 36.5 -108t100.5 -38q48 0 104.5 34t100.5 93q-28 85 -31 197l-2 49q-162 -29 -235.5 -84t-73.5 -143zM696 578h359q0 288 -158 288q-84 0 -138 -76t-63 -212z" />
<glyph unicode="&#xe7;" d="M156 500q0 122 45.5 222.5t122.5 166t179 101.5t216 36q221 0 368 -143l-98 -129q-126 104 -260 104q-162 0 -263 -98.5t-101 -259.5t99 -260t259 -99q155 0 299 119l86 -131q-152 -134 -344 -152l-37 -75q121 -41 121 -148q0 -60 -45.5 -103t-113 -64t-154.5 -27l-19 94 q178 21 178 96q0 34 -30 56t-97 40l68 134q-213 21 -346 159t-133 361z" />
<glyph unicode="&#xe8;" d="M133 500q0 119 43.5 220t115 167t163.5 102.5t190 36.5q216 0 338.5 -130t122.5 -343q0 -41 -10 -104h-754q9 -146 108 -230t252 -84q145 0 291 86l72 -129q-184 -117 -389 -117q-152 0 -274 61.5t-195.5 182t-73.5 281.5zM340 588h578q0 133 -70 205.5t-199 72.5 q-116 0 -202.5 -74t-106.5 -204zM385 1487h215l186 -313h-153z" />
<glyph unicode="&#xe9;" d="M133 500q0 119 43.5 220t115 167t163.5 102.5t190 36.5q216 0 338.5 -130t122.5 -343q0 -41 -10 -104h-754q9 -146 108 -230t252 -84q145 0 291 86l72 -129q-184 -117 -389 -117q-152 0 -274 61.5t-195.5 182t-73.5 281.5zM340 588h578q0 133 -70 205.5t-199 72.5 q-116 0 -202.5 -74t-106.5 -204zM502 1174l184 313h215l-248 -313h-151z" />
<glyph unicode="&#xea;" d="M133 500q0 119 43.5 220t115 167t163.5 102.5t190 36.5q216 0 338.5 -130t122.5 -343q0 -41 -10 -104h-754q9 -146 108 -230t252 -84q145 0 291 86l72 -129q-184 -117 -389 -117q-152 0 -274 61.5t-195.5 182t-73.5 281.5zM340 588h578q0 133 -70 205.5t-199 72.5 q-116 0 -202.5 -74t-106.5 -204zM356 1174l201 313h172l201 -313h-154l-129 200h-8l-129 -200h-154z" />
<glyph unicode="&#xeb;" d="M133 500q0 119 43.5 220t115 167t163.5 102.5t190 36.5q216 0 338.5 -130t122.5 -343q0 -41 -10 -104h-754q9 -146 108 -230t252 -84q145 0 291 86l72 -129q-184 -117 -389 -117q-152 0 -274 61.5t-195.5 182t-73.5 281.5zM315 1321q0 53 35 89t88 36q55 0 90 -36t35 -89 q0 -54 -35 -89.5t-90 -35.5q-54 0 -88.5 35.5t-34.5 89.5zM340 588h578q0 133 -70 205.5t-199 72.5q-116 0 -202.5 -74t-106.5 -204zM723 1321q0 53 35 89t90 36q53 0 88 -36t35 -89q0 -54 -34.5 -89.5t-88.5 -35.5q-55 0 -90 35.5t-35 89.5z" />
<glyph unicode="&#xec;" d="M178 838v163h651v-1001h-202v838h-449zM453 1487h217l184 -313h-154z" />
<glyph unicode="&#xed;" d="M178 838v163h651v-1001h-202v838h-449zM569 1174l185 313h215l-248 -313h-152z" />
<glyph unicode="&#xee;" d="M178 838v163h651v-1001h-202v838h-449zM424 1174l201 313h172l200 -313h-151l-131 200h-8l-129 -200h-154z" />
<glyph unicode="&#xef;" d="M178 838v163h651v-1001h-202v838h-449zM383 1321q0 53 35 89t88 36q55 0 90 -36t35 -89q0 -54 -35 -89.5t-90 -35.5q-54 0 -88.5 35.5t-34.5 89.5zM791 1321q0 53 34.5 89t89.5 36q53 0 88 -36t35 -89q0 -54 -34.5 -89.5t-88.5 -35.5q-55 0 -89.5 35.5t-34.5 89.5z" />
<glyph unicode="&#xf0;" d="M115 459q0 208 132 334.5t333 126.5q90 0 172 -39.5t135 -110.5q-52 235 -234 397l-307 -157l-57 98l266 135q-102 69 -233 131l92 127q177 -80 301 -176l276 141l58 -98l-238 -121q295 -278 295 -715q0 -250 -135 -403.5t-363 -153.5q-132 0 -243.5 57.5t-180.5 169.5 t-69 257zM305 459q0 -143 89 -230.5t220 -87.5q146 0 221.5 102t75.5 279q0 59 -2 86q-119 156 -295 156q-149 0 -229 -82.5t-80 -222.5z" />
<glyph unicode="&#xf1;" d="M180 0v1001h166l16 -161h9q85 89 172.5 137.5t195.5 48.5q340 0 340 -405v-621h-202v594q0 133 -48.5 194.5t-160.5 61.5q-76 0 -140 -38t-145 -122v-690h-203zM344 1184q12 113 62 177t133 64q34 0 68 -17t57 -38t49.5 -38t46.5 -17q34 0 53.5 26.5t30.5 83.5h110 q-12 -112 -61.5 -176.5t-132.5 -64.5q-43 0 -84 27.5t-75.5 55t-61.5 27.5q-64 0 -84 -110h-111z" />
<glyph unicode="&#xf2;" d="M115 500q0 122 41 222.5t110.5 166t159 101.5t188.5 36t189 -36t159.5 -101.5t110.5 -166t41 -222.5q0 -121 -41 -221.5t-110.5 -166t-159.5 -101.5t-189 -36t-188.5 36t-159 101.5t-110.5 166t-41 221.5zM324 500q0 -162 78.5 -260.5t211.5 -98.5t212 98.5t79 260.5 t-79 260t-212 98t-211.5 -98t-78.5 -260zM356 1487h215l185 -313h-152z" />
<glyph unicode="&#xf3;" d="M115 500q0 122 41 222.5t110.5 166t159 101.5t188.5 36t189 -36t159.5 -101.5t110.5 -166t41 -222.5q0 -121 -41 -221.5t-110.5 -166t-159.5 -101.5t-189 -36t-188.5 36t-159 101.5t-110.5 166t-41 221.5zM324 500q0 -162 78.5 -260.5t211.5 -98.5t212 98.5t79 260.5 t-79 260t-212 98t-211.5 -98t-78.5 -260zM473 1174l184 313h215l-247 -313h-152z" />
<glyph unicode="&#xf4;" d="M115 500q0 122 41 222.5t110.5 166t159 101.5t188.5 36t189 -36t159.5 -101.5t110.5 -166t41 -222.5q0 -121 -41 -221.5t-110.5 -166t-159.5 -101.5t-189 -36t-188.5 36t-159 101.5t-110.5 166t-41 221.5zM324 500q0 -162 78.5 -260.5t211.5 -98.5t212 98.5t79 260.5 t-79 260t-212 98t-211.5 -98t-78.5 -260zM328 1174l200 313h172l201 -313h-153l-130 200h-8l-129 -200h-153z" />
<glyph unicode="&#xf5;" d="M115 500q0 122 41 222.5t110.5 166t159 101.5t188.5 36t189 -36t159.5 -101.5t110.5 -166t41 -222.5q0 -121 -41 -221.5t-110.5 -166t-159.5 -101.5t-189 -36t-188.5 36t-159 101.5t-110.5 166t-41 221.5zM309 1184q12 113 62 177t133 64q33 0 67 -17t57 -38t49.5 -38 t47.5 -17q34 0 53.5 26.5t30.5 83.5h111q-12 -112 -62 -176.5t-133 -64.5q-43 0 -84 27.5t-75.5 55t-61.5 27.5q-34 0 -54 -26t-30 -84h-111zM324 500q0 -162 78.5 -260.5t211.5 -98.5t212 98.5t79 260.5t-79 260t-212 98t-211.5 -98t-78.5 -260z" />
<glyph unicode="&#xf6;" d="M115 500q0 122 41 222.5t110.5 166t159 101.5t188.5 36t189 -36t159.5 -101.5t110.5 -166t41 -222.5q0 -121 -41 -221.5t-110.5 -166t-159.5 -101.5t-189 -36t-188.5 36t-159 101.5t-110.5 166t-41 221.5zM287 1321q0 53 35 89t88 36q55 0 90 -36t35 -89q0 -54 -35 -89.5 t-90 -35.5q-54 0 -88.5 35.5t-34.5 89.5zM324 500q0 -162 78.5 -260.5t211.5 -98.5t212 98.5t79 260.5t-79 260t-212 98t-211.5 -98t-78.5 -260zM694 1321q0 53 35 89t90 36q53 0 88 -36t35 -89q0 -54 -34.5 -89.5t-88.5 -35.5q-55 0 -90 35.5t-35 89.5z" />
<glyph unicode="&#xf7;" d="M166 602v148h897v-148h-897zM489 307q0 54 35.5 87.5t89.5 33.5t89.5 -33.5t35.5 -87.5q0 -55 -35 -89t-90 -34t-90 34t-35 89zM489 1044q0 54 35.5 87.5t89.5 33.5t89.5 -33.5t35.5 -87.5q0 -55 -35 -88.5t-90 -33.5t-90 33.5t-35 88.5z" />
<glyph unicode="&#xf8;" d="M115 500q0 122 41 222.5t110.5 166t159 101.5t188.5 36q166 0 295 -94l101 119l86 -68l-107 -125q125 -141 125 -358q0 -121 -41 -221.5t-110.5 -166t-159.5 -101.5t-189 -36q-164 0 -295 95l-100 -119l-86 67l105 125q-123 142 -123 357zM324 500q0 -122 43 -207 l428 504q-73 67 -181 67q-132 0 -211 -100.5t-79 -263.5zM434 205q74 -68 180 -68q132 0 211.5 100t79.5 263q0 116 -43 207z" />
<glyph unicode="&#xf9;" d="M150 381v620h202v-593q0 -134 48.5 -196t160.5 -62q78 0 143 38t138 127v686h202v-1001h-165l-17 166h-8q-80 -92 -167 -141.5t-195 -49.5q-342 0 -342 406zM346 1487h215l184 -313h-151z" />
<glyph unicode="&#xfa;" d="M150 381v620h202v-593q0 -134 48.5 -196t160.5 -62q78 0 143 38t138 127v686h202v-1001h-165l-17 166h-8q-80 -92 -167 -141.5t-195 -49.5q-342 0 -342 406zM461 1174l186 313h215l-248 -313h-153z" />
<glyph unicode="&#xfb;" d="M150 381v620h202v-593q0 -134 48.5 -196t160.5 -62q78 0 143 38t138 127v686h202v-1001h-165l-17 166h-8q-80 -92 -167 -141.5t-195 -49.5q-342 0 -342 406zM317 1174l201 313h172l201 -313h-154l-129 200h-8l-129 -200h-154z" />
<glyph unicode="&#xfc;" d="M150 381v620h202v-593q0 -134 48.5 -196t160.5 -62q78 0 143 38t138 127v686h202v-1001h-165l-17 166h-8q-80 -92 -167 -141.5t-195 -49.5q-342 0 -342 406zM276 1321q0 53 35 89t88 36q55 0 90 -36t35 -89q0 -54 -35 -89.5t-90 -35.5q-54 0 -88.5 35.5t-34.5 89.5z M684 1321q0 53 35 89t90 36q53 0 88 -36t35 -89q0 -54 -34.5 -89.5t-88.5 -35.5q-55 0 -90 35.5t-35 89.5z" />
<glyph unicode="&#xfd;" d="M92 1001h203l225 -522q16 -39 55.5 -139.5t61.5 -153.5h8q48 140 103 293l198 522h193l-428 -1064q-31 -84 -69.5 -146.5t-91 -111.5t-122 -74t-154.5 -25q-72 0 -137 21l41 157q44 -14 86 -14q180 0 258 193l27 69zM481 1174l185 313h217l-248 -313h-154z" />
<glyph unicode="&#xfe;" d="M180 -410v1862h203v-397l-6 -172q71 66 154.5 104.5t166.5 38.5q196 0 306 -138t110 -372q0 -124 -37.5 -228t-101 -171.5t-144 -104.5t-167.5 -37q-145 0 -285 123l4 -180v-328h-203zM383 248q57 -53 122 -79t120 -26q121 0 200.5 99t79.5 272q0 163 -64 252.5 t-196 89.5q-133 0 -262 -135v-473z" />
<glyph unicode="&#xff;" d="M92 1001h203l225 -522q16 -39 55.5 -139.5t61.5 -153.5h8q48 140 103 293l198 522h193l-428 -1064q-31 -84 -69.5 -146.5t-91 -111.5t-122 -74t-154.5 -25q-72 0 -137 21l41 157q44 -14 86 -14q180 0 258 193l27 69zM297 1321q0 53 35 89t88 36q55 0 90 -36t35 -89 q0 -54 -35 -89.5t-90 -35.5q-54 0 -88.5 35.5t-34.5 89.5zM705 1321q0 53 34.5 89t89.5 36q53 0 88 -36t35 -89q0 -54 -34.5 -89.5t-88.5 -35.5q-55 0 -89.5 35.5t-34.5 89.5z" />
<glyph unicode="&#x152;" d="M59 676q0 322 147.5 494.5t403.5 172.5h582v-172h-379v-385h289v-172h-289v-442h399v-172h-610q-252 0 -397.5 177t-145.5 499zM270 676q0 -252 79.5 -381t236.5 -129h41v1010h-41q-316 0 -316 -500z" />
<glyph unicode="&#x153;" d="M23 500q0 244 103.5 385t262.5 141q92 0 160.5 -58.5t109.5 -164.5q42 107 109 165t156 58q93 0 161.5 -64.5t101 -168t32.5 -232.5q0 -47 -9 -112h-483q11 -146 68 -229t155 -83q78 0 170 62l70 -133q-121 -91 -246 -91q-93 0 -166.5 54.5t-115.5 156.5 q-91 -211 -275 -211q-159 0 -261.5 141t-102.5 384zM209 500q0 -164 49.5 -262.5t140.5 -98.5q81 0 130 100t49 261q0 162 -49 261t-130 99q-92 0 -141 -97.5t-49 -262.5zM725 578h330q0 83 -12.5 144t-46.5 102.5t-87 41.5q-81 0 -127 -74.5t-57 -213.5z" />
<glyph unicode="&#x178;" d="M68 1341h217l184 -378q19 -41 68 -147t77 -165h9q96 200 149 312l178 378h211l-444 -870v-471h-205v471zM319 1569q0 47 32 78.5t79 31.5q49 0 81 -31.5t32 -78.5q0 -49 -31.5 -81t-81.5 -32q-48 0 -79.5 32t-31.5 81zM686 1569q0 47 32 78.5t81 31.5q47 0 78.5 -31.5 t31.5 -78.5q0 -49 -31.5 -81t-78.5 -32q-49 0 -81 32t-32 81z" />
<glyph unicode="&#x2c6;" d="M328 1174l200 313h172l201 -313h-153l-130 200h-8l-129 -200h-153z" />
<glyph unicode="&#x2dc;" d="M309 1184q12 113 62 177t133 64q33 0 67 -17t57 -38t49.5 -38t47.5 -17q34 0 53.5 26.5t30.5 83.5h111q-12 -112 -62 -176.5t-133 -64.5q-43 0 -84 27.5t-75.5 55t-61.5 27.5q-34 0 -54 -26t-30 -84h-111z" />
<glyph unicode="&#x2000;" horiz-adv-x="900" />
<glyph unicode="&#x2001;" horiz-adv-x="1800" />
<glyph unicode="&#x2002;" horiz-adv-x="900" />
<glyph unicode="&#x2003;" horiz-adv-x="1800" />
<glyph unicode="&#x2004;" horiz-adv-x="600" />
<glyph unicode="&#x2005;" horiz-adv-x="450" />
<glyph unicode="&#x2006;" horiz-adv-x="300" />
<glyph unicode="&#x2007;" horiz-adv-x="300" />
<glyph unicode="&#x2008;" horiz-adv-x="225" />
<glyph unicode="&#x2009;" horiz-adv-x="360" />
<glyph unicode="&#x200a;" horiz-adv-x="100" />
<glyph unicode="&#x2010;" d="M166 602v148h897v-148h-897z" />
<glyph unicode="&#x2011;" d="M166 602v148h897v-148h-897z" />
<glyph unicode="&#x2012;" d="M166 602v148h897v-148h-897z" />
<glyph unicode="&#x2013;" d="M164 434v166h901v-166h-901z" />
<glyph unicode="&#x2014;" d="M41 434v166h1147v-166h-1147z" />
<glyph unicode="&#x2018;" d="M416 952q0 156 80.5 280t228.5 198l61 -115q-203 -110 -215 -311q27 10 50 10q69 0 112 -44.5t43 -113.5q0 -76 -45.5 -124t-116.5 -48q-90 0 -144 71.5t-54 196.5z" />
<glyph unicode="&#x2019;" d="M436 799q205 110 217 313q-27 -10 -49 -10q-69 0 -112 44t-43 114q0 75 45 122.5t116 47.5q90 0 144.5 -71.5t54.5 -197.5q0 -156 -80.5 -279.5t-228.5 -197.5z" />
<glyph unicode="&#x201a;" d="M436 -352q205 110 217 313q-27 -10 -49 -10q-69 0 -112 44t-43 114q0 76 45 123t116 47q90 0 144.5 -71t54.5 -196q0 -158 -80.5 -281.5t-228.5 -195.5z" />
<glyph unicode="&#x201c;" d="M170 952q0 157 81 280.5t230 197.5l62 -115q-203 -110 -215 -311q27 10 49 10q69 0 112 -44.5t43 -113.5q0 -76 -45 -124t-116 -48q-92 0 -146.5 71.5t-54.5 196.5zM659 952q0 156 81 280t231 198l61 -115q-203 -110 -215 -311q27 10 49 10q68 0 112 -44.5t44 -113.5 q0 -76 -46 -124t-118 -48q-90 0 -144.5 71.5t-54.5 196.5z" />
<glyph unicode="&#x201d;" d="M193 799q200 109 215 311q-32 -8 -50 -8q-69 0 -112 44t-43 114q0 75 46 122.5t118 47.5q90 0 144 -71.5t54 -197.5q0 -156 -80.5 -279.5t-230.5 -197.5zM682 799q200 109 215 311q-32 -8 -49 -8q-69 0 -112.5 44t-43.5 114q0 75 45.5 122.5t116.5 47.5q92 0 146.5 -71.5 t54.5 -197.5q0 -156 -81 -279.5t-231 -197.5z" />
<glyph unicode="&#x201e;" d="M193 -352q203 110 215 313q-27 -10 -50 -10q-69 0 -112 44t-43 114q0 76 46 123t118 47q90 0 144 -71t54 -196q0 -158 -80.5 -281.5t-230.5 -195.5zM682 -352q203 110 215 313q-27 -10 -49 -10q-69 0 -112.5 44t-43.5 114q0 76 45.5 123t116.5 47q92 0 146.5 -71 t54.5 -196q0 -158 -81 -281.5t-231 -195.5z" />
<glyph unicode="&#x2022;" d="M301 537q0 134 91.5 221.5t221.5 87.5t222 -87.5t92 -221.5t-92 -222t-222 -88t-221.5 88t-91.5 222z" />
<glyph unicode="&#x2026;" d="M47 139q0 73 44.5 119.5t111.5 46.5q66 0 109.5 -46.5t43.5 -119.5q0 -71 -43.5 -117.5t-109.5 -46.5t-111 47t-45 117zM461 139q0 73 43.5 119.5t109.5 46.5q67 0 110.5 -46.5t43.5 -119.5q0 -70 -44 -117t-110 -47t-109.5 46.5t-43.5 117.5zM872 139q0 73 43.5 119.5 t110.5 46.5t111.5 -46.5t44.5 -119.5q0 -70 -45 -117t-111 -47t-110 47t-44 117z" />
<glyph unicode="&#x202f;" horiz-adv-x="360" />
<glyph unicode="&#x2039;" d="M391 416v200l324 324l92 -82l-260 -342l260 -344l-92 -80z" />
<glyph unicode="&#x203a;" d="M422 172l260 344l-260 342l92 82l324 -324v-200l-324 -324z" />
<glyph unicode="&#x205f;" horiz-adv-x="450" />
<glyph unicode="&#x20ac;" d="M111 471v102l120 9q-2 23 -2 67q0 42 2 62h-120v104l133 10q41 237 187.5 370.5t365.5 133.5q101 0 194 -43.5t158 -116.5l-117 -112q-115 112 -241 112q-137 0 -224.5 -90t-115.5 -254h579v-114h-592q-2 -18 -2 -56q0 -48 2 -71h510v-113h-495q31 -160 115.5 -247 t213.5 -87q152 0 269 135l116 -106q-164 -191 -397 -191q-205 0 -346 131t-180 365h-133z" />
<glyph unicode="&#x2122;" d="M-14 1255v129h516v-129h-187v-507h-141v507h-188zM590 748v636h162l86 -223l51 -160h8l51 160l86 223h162v-636h-129v258l16 221h-8l-135 -363h-96l-135 363h-9l17 -221v-258h-127z" />
<glyph unicode="&#x25fc;" horiz-adv-x="1003" d="M0 0v1004h1004v-1004h-1004z" />
<glyph unicode="&#xfb01;" d="M82 838v153l135 10v129q0 162 77.5 254.5t235.5 92.5q90 0 177 -35l-41 -152q-58 25 -111 25q-135 0 -135 -182v-132h205v-163h-205v-838h-203v838h-135zM788 1337q0 64 44.5 105t111.5 41q68 0 113 -41t45 -105t-45 -104.5t-113 -40.5q-67 0 -111.5 40.5t-44.5 104.5z M844 0v1001h203v-1001h-203z" />
<glyph unicode="&#xfb02;" d="M92 838v153l135 10v129q0 162 77.5 254.5t236.5 92.5q87 0 174 -35l-41 -152q-58 25 -111 25q-133 0 -133 -182v-132h203v-163h-203v-838h-203v838h-135zM817 229v1223h203v-1235q0 -39 14 -57.5t35 -18.5q19 0 37 4l24 -151q-48 -19 -110 -19q-107 0 -155 64.5 t-48 189.5z" />
</font>
</defs>
</svg>
